<svg xmlns="http://www.w3.org/2000/svg" xmlns:xlink="http://www.w3.org/1999/xlink" width="256.49" height="256.1"><g transform="translate(0 0)"><path d="M38.68 110.9l71.86-72.06" stroke="#ef8d22" stroke-width="10" fill="none"/><path d="M42.22 114.43l-.45.45-.32-.66-2.77-3.32zm-4.3-4.3l-3.22-2.3.44-.46zM114.52 41.92l-.44.45-2.78-2.78zm-6.75-6.4l2.77 3.32L107 35.3l.45-.45z" fill="#ef8d22"/><path d="M38.58 210.48l71.93-71.77" stroke="#ef8d22" stroke-width="10" fill="none"/><path d="M42.1 214.02l-.44.45-.34-.7-2.74-3.3zm-4.32-4.34l-3.18-2.3.45-.44zM114.48 141.8l-.44.45-2.73-2.74zm-6.7-6.37l2.73 3.28-3.52-3.53.45-.45z" fill="#ef8d22"/><path d="M124.6 104.64v-59.9" stroke="#0c7cba" stroke-width="10" fill="none"/><path d="M129.6 105.27h-.03l-4.96-.63-1.42.05-3.57.7v-.76h10zM119.65 44.1l4.96.63h-5v-.64zm9.96.63h-5l1.45-.05 3.56-.7z" fill="#0c7cba"/><path d="M124.5 204.55l.08-59.92" stroke="#0c7cba" stroke-width="10" fill="none"/><path d="M124.4 204.55l-1.36.05-3.54.7v-.75zm5.1 0v.64l-.06-.03-4.94-.62zM129.58 144.64h-4.88l1.35-.05 3.53-.7zm-9.93-.62l4.93.6h-5V144z" fill="#0c7cba"/><path d="M224.6 44.64V105" stroke="#0c7cba" stroke-width="10" fill="none"/><path d="M219.65 44.02l4.96.62h-5V44zm9.96.62h-5l1.45-.05 3.56-.72zM229.6 105.65l-.03-.02-4.96-.62-1.42.06-3.57.7v-.75h10z" fill="#0c7cba"/><path d="M224.5 204.55l.08-59.54" stroke="#0c7cba" stroke-width="10" fill="none"/><path d="M224.4 204.55l-1.36.05-3.54.7v-.75zm5.1 0v.64l-.06-.03-4.94-.62zM229.58 145h-4.88l1.35-.04 3.53-.7zm-9.93-.6l4.93.6h-5v-.64z" fill="#0c7cba"/><path d="M138.7 110.55l71.82-71.82" stroke="#0c7cba" stroke-width="10" fill="none"/><path d="M142.23 114.1l-.45.44-.33-.7-2.75-3.3zm-4.3-4.33l-3.2-2.3.43-.46zM214.5 41.82l-.44.44-2.75-2.75zm-6.73-6.4l2.75 3.3L207 35.2l.44-.46z" fill="#0c7cba"/><path d="M24.5 204.55l.08-59.54" stroke="#0c7cba" stroke-width="10" fill="none"/><path d="M24.4 204.55l-1.36.05-3.54.7v-.75zm5.1 0v.64l-.06-.03-4.94-.62zM29.58 145H24.7l1.35-.04 3.53-.7zm-9.93-.6l4.93.6h-5v-.64z" fill="#0c7cba"/><path d="M104.6 124.7l-60 .24" stroke="#ef8d22" stroke-width="10" fill="none"/><path d="M104.66 126.07l.72 3.64h-.75l-.02-5zm-.05-1.45v-4.9h.63zM44.63 129.94H44l.6-4.9zm-.02-5l-.04-1.36-.72-3.64h.75z" fill="#ef8d22"/><path d="M44.6 125c0 11.06-8.94 20-20 20-11.04 0-20-8.94-20-20 0-11.04 8.96-20 20-20 11.06 0 20 8.96 20 20z" stroke="#000" stroke-width="2" fill="#ffc374"/><use xlink:href="#a" transform="matrix(1,0,0,1,9.610082453377117,110.01025499399756) translate(15 20.4)"/><path d="M144.6 124.64c0 11.04-8.94 20-20 20-11.04 0-20-8.96-20-20 0-11.05 8.96-20 20-20 11.06 0 20 8.95 20 20z" stroke="#000" stroke-width="2" fill="#ffc374"/><use xlink:href="#a" transform="matrix(1,0,0,1,109.6100824533771,109.63758005349645) translate(15 20.4)"/><path d="M44.48 224.55c0 11.04-8.96 20-20 20-11.05 0-20-8.96-20-20 0-11.05 8.95-20 20-20 11.04 0 20 8.95 20 20z" stroke="#000" stroke-width="2" fill="#ffc374"/><use xlink:href="#a" transform="matrix(1,0,0,1,9.477094141333282,209.54911513075913) translate(15 20.4)"/><path d="M144.48 224.55c0 11.04-8.96 20-20 20-11.05 0-20-8.96-20-20 0-11.05 8.95-20 20-20 11.04 0 20 8.95 20 20z" stroke="#000" stroke-width="2" fill="#b2d6ef"/><use xlink:href="#a" transform="matrix(1,0,0,1,109.47709414133328,209.54911513075913) translate(15 20.4)"/><path d="M144.6 24.73c0 11.04-8.94 20-20 20-11.04 0-20-8.96-20-20 0-11.05 8.96-20 20-20 11.06 0 20 8.95 20 20z" stroke="#000" stroke-width="2" fill="#ffc374"/><use xlink:href="#a" transform="matrix(1,0,0,1,109.6100824533771,9.726044976233794) translate(15 20.4)"/><path d="M244.6 125c0 11.06-8.94 20-20 20-11.04 0-20-8.94-20-20 0-11.04 8.96-20 20-20 11.06 0 20 8.96 20 20z" stroke="#000" stroke-width="2" fill="#b2d6ef"/><use xlink:href="#a" transform="matrix(1,0,0,1,209.61008245337712,110.01025499399756) translate(15 20.4)"/><path d="M244.48 224.55c0 11.04-8.96 20-20 20-11.05 0-20-8.96-20-20 0-11.05 8.95-20 20-20 11.04 0 20 8.95 20 20z" stroke="#000" stroke-width="2" fill="#b2d6ef"/><use xlink:href="#a" transform="matrix(1,0,0,1,209.47709414133328,209.54911513075913) translate(15 20.4)"/><path d="M244.6 24.64c0 11.04-8.94 20-20 20-11.04 0-20-8.96-20-20 0-11.05 8.96-20 20-20 11.06 0 20 8.95 20 20z" stroke="#000" stroke-width="2" fill="#b2d6ef"/><use xlink:href="#a" transform="matrix(1,0,0,1,209.61008245337712,9.637580053496464) translate(15 20.4)"/></g></svg>