<svg xmlns="http://www.w3.org/2000/svg" xmlns:xlink="http://www.w3.org/1999/xlink" width="422" height="445.88"><g transform="translate(10.841396693784645 0)"><path d="M55.75 150.9l128.5-98.8" stroke="#ef8d22" stroke-width="10" fill="none"/><path d="M58.8 154.86l-.5.38-1.3-2.73zm-3.05-3.96l-2.12-2.54-1.44-1.04.5-.4zM186.37 54.64l1.44 1.04-.5.4-3.05-3.98zM183 50.5l-1.8-2.36.5-.38z" fill="#ef8d22"/><path d="M180.17 161.25L60 162.75" stroke="#ef8d22" stroke-width="10" fill="none"/><path d="M180.2 162.44l.76 3.8h-.73l-.06-5zm-.04-1.48l-.06-4.7.65-.02zM60.05 167.75h-.65l.6-4.7zm-.06-5l-.05-1.2-.75-3.8h.73z" fill="#ef8d22"/><path d="M56 270.02l128.3-97.04" stroke="#ef8d22" stroke-width="10" fill="none"/><path d="M59.02 274l-.5.38-1.36-2.83zM56 270.02l-2.2-2.66-1.32-.94.5-.4zM186.53 175.64l1.3.94-.5.4-3.02-4zm-3.38-4.2L181.3 169l.5-.38z" fill="#ef8d22"/><path d="M200.16 262v-81" stroke="#0c7cba" stroke-width="10" fill="none"/><path d="M205.16 262.64l-.04-.02-4.96-.62-1.44.05-3.56.7V262h10zM195.2 180.38l4.96.62h-5v-.64zm9.96.62h-5l1.43-.05 3.56-.7z" fill="#0c7cba"/><path d="M200.16 385.88V302" stroke="#0c7cba" stroke-width="10" fill="none"/><path d="M205.16 386.5h-.04l-4.96-.62-1.44.05-3.56.7v-.75h10zM195.2 301.38l4.96.62h-5v-.64zm9.96.62h-5l1.43-.05 3.56-.7z" fill="#0c7cba"/><path d="M360.16 181v82" stroke="#0c7cba" stroke-width="10" fill="none"/><path d="M355.2 180.38l4.96.62h-5v-.64zm9.96.62h-5l1.43-.05 3.56-.7zM365.16 263.64l-.04-.02-4.96-.62-1.44.05-3.56.7V263h10z" fill="#0c7cba"/><path d="M360.16 383.88V303" stroke="#0c7cba" stroke-width="10" fill="none"/><path d="M365.16 384.5h-.04l-4.96-.62-1.44.05-3.56.7v-.75h10zM355.2 302.38l4.96.62h-5v-.64zm9.96.62h-5l1.43-.05 3.56-.7z" fill="#0c7cba"/><path d="M60 163c0 11.05-8.95 20-20 20s-20-8.95-20-20 8.95-20 20-20 20 8.95 20 20z" stroke="#000" stroke-width="2" fill="#ffc374"/><use xlink:href="#a" transform="matrix(1,0,0,1,25,148) translate(15 20.4)"/><path d="M60.16 282c0 11.05-8.96 20-20 20-11.05 0-20-8.95-20-20s8.95-20 20-20c11.04 0 20 8.95 20 20z" stroke="#000" stroke-width="2" fill="#b2d6ef"/><use xlink:href="#a" transform="matrix(1,0,0,1,25.158603306215355,267) translate(15 20.4)"/><path d="M220.16 282c0 11.05-8.96 20-20 20-11.05 0-20-8.95-20-20s8.95-20 20-20c11.04 0 20 8.95 20 20z" stroke="#000" stroke-width="2" fill="#b2d6ef"/><use xlink:href="#a" transform="matrix(1,0,0,1,185.15860330621535,267) translate(15 20.4)"/><path d="M60.16 405.88c0 11.04-8.96 20-20 20-11.05 0-20-8.96-20-20 0-11.05 8.95-20 20-20 11.04 0 20 8.95 20 20z" stroke="#000" stroke-width="2" fill="#b2d6ef"/><use xlink:href="#a" transform="matrix(1,0,0,1,25.158603306215355,390.8763822705515) translate(15 20.4)"/><path d="M220.16 405.88c0 11.04-8.96 20-20 20-11.05 0-20-8.96-20-20 0-11.05 8.95-20 20-20 11.04 0 20 8.95 20 20z" stroke="#000" stroke-width="2" fill="#b2d6ef"/><use xlink:href="#a" transform="matrix(1,0,0,1,185.15860330621535,390.8763822705515) translate(15 20.4)"/><path d="M220 40c0 11.05-8.95 20-20 20s-20-8.95-20-20 8.95-20 20-20 20 8.95 20 20z" stroke="#000" stroke-width="2" fill="#ffc374"/><use xlink:href="#a" transform="matrix(1,0,0,1,185,25) translate(15 20.4)"/><path d="M220.16 161c0 11.05-8.96 20-20 20-11.05 0-20-8.95-20-20s8.95-20 20-20c11.04 0 20 8.95 20 20z" stroke="#000" stroke-width="2" fill="#ffc374"/><use xlink:href="#a" transform="matrix(1,0,0,1,185.15860330621535,146) translate(15 20.4)"/><path d="M380.16 283c0 11.05-8.96 20-20 20-11.05 0-20-8.95-20-20s8.95-20 20-20c11.04 0 20 8.95 20 20z" stroke="#000" stroke-width="2" fill="#b2d6ef"/><use xlink:href="#a" transform="matrix(1,0,0,1,345.15860330621535,268) translate(15 20.4)"/><path d="M380.16 403.88c0 11.04-8.96 20-20 20-11.05 0-20-8.96-20-20 0-11.05 8.95-20 20-20 11.04 0 20 8.95 20 20z" stroke="#000" stroke-width="2" fill="#b2d6ef"/><use xlink:href="#a" transform="matrix(1,0,0,1,345.15860330621535,388.8763822705515) translate(15 20.4)"/><path d="M380.16 161c0 11.05-8.96 20-20 20-11.05 0-20-8.95-20-20s8.95-20 20-20c11.04 0 20 8.95 20 20z" stroke="#000" stroke-width="2" fill="#b2d6ef"/><use xlink:href="#a" transform="matrix(1,0,0,1,345.15860330621535,146) translate(15 20.4)"/><path d="M216 270.02l128.3-97.04" stroke="#0c7cba" stroke-width="10" fill="none"/><path d="M219.02 274l-.5.38-1.36-2.83zm-3.02-3.98l-2.2-2.66-1.32-.94.5-.4zM346.53 175.64l1.3.94-.5.4-3.02-4zm-3.38-4.2L341.3 169l.5-.38z" fill="#0c7cba"/><path d="M40.16 385.88V302" stroke="#0c7cba" stroke-width="10" fill="none"/><path d="M45.16 386.5h-.04l-4.96-.62-1.44.05-3.56.7v-.75h10zM35.2 301.38l4.96.62h-5v-.64zm9.96.62h-5l1.43-.05 3.56-.7z" fill="#0c7cba"/></g></svg>