<svg xmlns="http://www.w3.org/2000/svg" xmlns:xlink="http://www.w3.org/1999/xlink" width="302" height="323"><g transform="translate(21.931961344880335 10.154700888727234)"><path d="M44.5 98.35l69.15-56" stroke="#ef8d22" stroke-width="10" fill="none"/><path d="M47.64 102.24l-.5.4-1.17-2.46zm-3.15-3.9l-1.8-2.13-1.85-1.33.5-.4zM115.44 44.48l1.85 1.34-.5.4-3.15-3.88zm-3.28-3.97l-1.66-2.05.5-.4z" fill="#ef8d22"/><path d="M109.07 110.85h-60" stroke="#ef8d22" stroke-width="10" fill="none"/><path d="M109.7 105.88l-.63 4.97.05 1.43.7 3.57h-.75v-10h.63zM49.07 115.85h-.64l.02-.04.62-4.95-.05-1.44-.7-3.55h.75z" fill="#ef8d22"/><path d="M44.5 179.35l69.15-56" stroke="#ef8d22" stroke-width="10" fill="none"/><path d="M47.64 183.24l-.5.4-1.17-2.46zm-3.15-3.9l-1.8-2.13-1.85-1.33.5-.4zM115.44 125.48l1.85 1.34-.5.4-3.15-3.88zm-3.28-3.97l-1.66-2.05.5-.4z" fill="#ef8d22"/><path d="M129.07 171.85v-41" stroke="#0c7cba" stroke-width="10" fill="none"/><path d="M134.07 172.48h-.04l-4.96-.63-1.44.05-3.56.7v-.75h10zM124.1 130.22l4.97.63h-5v-.64zm9.97.63h-5l1.43-.06 3.57-.7z" fill="#0c7cba"/><path d="M129.07 252.85v-41" stroke="#0c7cba" stroke-width="10" fill="none"/><path d="M134.07 253.48h-.04l-4.96-.63-1.44.05-3.56.7v-.75h10zM124.1 211.22l4.97.63h-5v-.64zm9.97.63h-5l1.43-.06 3.57-.7z" fill="#0c7cba"/><path d="M229.07 130.85v41" stroke="#0c7cba" stroke-width="10" fill="none"/><path d="M224.1 130.22l4.97.63h-5v-.64zm9.97.63h-5l1.43-.06 3.57-.7zM234.07 172.48h-.04l-4.96-.63-1.44.05-3.56.7v-.75h10z" fill="#0c7cba"/><path d="M229.07 252.85v-41" stroke="#0c7cba" stroke-width="10" fill="none"/><path d="M234.07 253.48h-.04l-4.96-.63-1.44.05-3.56.7v-.75h10zM224.1 211.22l4.97.63h-5v-.64zm9.97.63h-5l1.43-.06 3.57-.7z" fill="#0c7cba"/><path d="M49.07 110.85c0 11.04-8.96 20-20 20-11.05 0-20-8.96-20-20 0-11.05 8.95-20 20-20 11.04 0 20 8.95 20 20z" stroke="#000" stroke-width="2" fill="#ffc374"/><use xlink:href="#a" transform="matrix(1,0,0,1,14.068038655119665,95.84529911127277) translate(15 20.4)"/><path d="M49.07 191.85c0 11.04-8.96 20-20 20-11.05 0-20-8.96-20-20 0-11.05 8.95-20 20-20 11.04 0 20 8.95 20 20z" stroke="#000" stroke-width="2" fill="#b2d6ef"/><use xlink:href="#a" transform="matrix(1,0,0,1,14.068038655119665,176.84529911127277) translate(15 20.4)"/><path d="M149.07 191.85c0 11.04-8.96 20-20 20-11.05 0-20-8.96-20-20 0-11.05 8.95-20 20-20 11.04 0 20 8.95 20 20z" stroke="#000" stroke-width="2" fill="#b2d6ef"/><use xlink:href="#a" transform="matrix(1,0,0,1,114.06803865511966,176.84529911127277) translate(15 20.4)"/><path d="M49.07 272.85c0 11.04-8.96 20-20 20-11.05 0-20-8.96-20-20 0-11.05 8.95-20 20-20 11.04 0 20 8.95 20 20z" stroke="#000" stroke-width="2" fill="#b2d6ef"/><use xlink:href="#a" transform="matrix(1,0,0,1,14.068038655119665,257.84529911127277) translate(15 20.4)"/><path d="M149.07 272.85c0 11.04-8.96 20-20 20-11.05 0-20-8.96-20-20 0-11.05 8.95-20 20-20 11.04 0 20 8.95 20 20z" stroke="#000" stroke-width="2" fill="#b2d6ef"/><use xlink:href="#a" transform="matrix(1,0,0,1,114.06803865511966,257.84529911127277) translate(15 20.4)"/><path d="M149.07 29.85c0 11.04-8.96 20-20 20-11.05 0-20-8.96-20-20 0-11.05 8.95-20 20-20 11.04 0 20 8.95 20 20z" stroke="#000" stroke-width="2" fill="#ffc374"/><use xlink:href="#a" transform="matrix(1,0,0,1,114.06803865511966,14.84529911127277) translate(15 20.4)"/><path d="M149.07 110.85c0 11.04-8.96 20-20 20-11.05 0-20-8.96-20-20 0-11.05 8.95-20 20-20 11.04 0 20 8.95 20 20z" stroke="#000" stroke-width="2" fill="#ffc374"/><use xlink:href="#a" transform="matrix(1,0,0,1,114.06803865511966,95.84529911127277) translate(15 20.4)"/><path d="M249.07 191.85c0 11.04-8.96 20-20 20-11.05 0-20-8.96-20-20 0-11.05 8.95-20 20-20 11.04 0 20 8.95 20 20z" stroke="#000" stroke-width="2" fill="#b2d6ef"/><use xlink:href="#a" transform="matrix(1,0,0,1,214.06803865511966,176.84529911127277) translate(15 20.4)"/><path d="M249.07 272.85c0 11.04-8.96 20-20 20-11.05 0-20-8.96-20-20 0-11.05 8.95-20 20-20 11.04 0 20 8.95 20 20z" stroke="#000" stroke-width="2" fill="#b2d6ef"/><use xlink:href="#a" transform="matrix(1,0,0,1,214.06803865511966,257.84529911127277) translate(15 20.4)"/><path d="M249.07 110.85c0 11.04-8.96 20-20 20-11.05 0-20-8.96-20-20 0-11.05 8.95-20 20-20 11.04 0 20 8.95 20 20z" stroke="#000" stroke-width="2" fill="#b2d6ef"/><use xlink:href="#a" transform="matrix(1,0,0,1,214.06803865511966,95.84529911127277) translate(15 20.4)"/><path d="M144.5 179.35l69.15-56" stroke="#0c7cba" stroke-width="10" fill="none"/><path d="M147.64 183.24l-.5.4-1.17-2.46zm-3.15-3.9l-1.8-2.13-1.85-1.33.5-.4zM215.44 125.48l1.85 1.34-.5.4-3.15-3.88zm-3.28-3.97l-1.66-2.05.5-.4z" fill="#0c7cba"/><path d="M29.07 252.85v-41" stroke="#0c7cba" stroke-width="10" fill="none"/><path d="M34.07 253.48h-.04l-4.96-.63-1.44.05-3.56.7v-.75h10zM24.1 211.22l4.97.63h-5v-.64zm9.97.63h-5l1.43-.06 3.57-.7z" fill="#0c7cba"/></g></svg>